:FULLY-SPECIFIED
:FORCE-ALL-JOINTS-BE-3DOF
:DEGREES
34
root 5.98354 16.9006 -28.0767 9.97963 -1.86645 -2.25668
lfemur -20.0849 1.64894 -19.7837
ltibia 33.7656 0 0
lfoot -36.0065 4.25071 0
ltoes 36.1891 0 0
rfemur -16.8114 7.34118 19.5572
rtibia 30.5771 0 0
rfoot -27.394 -19.0938 0
rtoes 14.8796 0 0
lowerback -5.44673 2.55355 -1.00501
upperback -1.909 3.44331 0.843364
thorax 0.973432 1.72703 1.63763
lowerneck -9.54849 -1.65054 2.6687
upperneck -2.60922 -2.46527 0.729071
head 0.751338 -1.23612 -0.302729
lclavicle -3.97179e-14 -6.09133e-15 0
lhumerus -41.513 -12.7174 97.0795
lradius 38.766 0 0
lwrist 5.66196 0 0
lhand -11.3082 5.75218 0
lfingers 7.12502 0 0
lthumb 14.7235 35.209 0
rclavicle -3.97179e-14 -6.09133e-15 0
rhumerus -40.639 -5.0799 -88.6512
rradius 39.1443 0 0
rwrist 11.1008 0 0
rhand -26.8339 -19.9383 0
rfingers 7.12502 0 0
rthumb -0.259701 -49.918 0
35
root 5.97634 16.9011 -28.0773 10.0026 -1.8717 -2.21521
lfemur -20.093 1.66101 -19.8023
ltibia 33.7336 0 0
lfoot -35.9319 4.25746 0
ltoes 36.0316 0 0
rfemur -16.8088 7.36672 19.5352
rtibia 30.537 0 0
rfoot -27.3546 -19.1508 0
rtoes 14.6412 0 0
lowerback -5.50739 2.53788 -0.924285
upperback -1.88596 3.41957 0.75931
thorax 1.04195 1.7137 1.50913
lowerneck -9.53334 -1.63219 2.70439
upperneck -2.65897 -2.4439 0.794214
head 0.733453 -1.22522 -0.287108
lclavicle -4.23216e-14 -4.48685e-15 0
lhumerus -41.5041 -12.8032 97.0398
lradius 39.0048 0 0
lwrist 5.82774 0 0
lhand -11.4091 5.54335 0
lfingers 7.12502 0 0
lthumb 14.6263 35.0074 0
rclavicle -4.23216e-14 -4.48685e-15 0
rhumerus -40.5726 -5.06748 -88.7754
rradius 39.0913 0 0
rwrist 11.1447 0 0
rhand -26.8142 -19.9242 0
rfingers 7.12502 0 0
rthumb -0.240629 -49.9038 0
36
root 5.96913 16.9015 -28.0778 10.0256 -1.87695 -2.17374
lfemur -20.1012 1.67309 -19.8209
ltibia 33.7015 0 0
lfoot -35.8574 4.26421 0
ltoes 35.874 0 0
rfemur -16.8063 7.39226 19.5132
rtibia 30.4968 0 0
rfoot -27.3152 -19.2078 0
rtoes 14.4027 0 0
lowerback -5.56804 2.52222 -0.843564
upperback -1.86292 3.39584 0.675257
thorax 1.11046 1.70037 1.38064
lowerneck -9.51818 -1.61384 2.74008
upperneck -2.70871 -2.42252 0.859358
head 0.715568 -1.21433 -0.271487
lclavicle -4.49253e-14 -2.88238e-15 0
lhumerus -41.4952 -12.8889 97.0002
lradius 39.2435 0 0
lwrist 5.99353 0 0
lhand -11.51 5.33451 0
lfingers 7.12502 0 0
lthumb 14.5291 34.8057 0
rclavicle -4.49253e-14 -2.88238e-15 0
rhumerus -40.5062 -5.05506 -88.8996
rradius 39.0384 0 0
rwrist 11.1885 0 0
rhand -26.7944 -19.91 0
rfingers 7.12502 0 0
rthumb -0.221556 -49.8897 0
37
root 5.96213 16.9011 -28.0788 10.0515 -1.82714 -2.14543
lfemur -20.1493 1.62536 -19.8188
ltibia 33.7299 0 0
lfoot -35.7651 4.25576 0
ltoes 35.779 0 0
rfemur -16.8233 7.21703 19.5064
rtibia 30.4798 0 0
rfoot -27.2904 -19.1306 0
rtoes 13.8497 0 0
lowerback -5.59916 2.48684 -0.737919
upperback -1.84415 3.34424 0.58972
thorax 1.15875 1.67402 1.23291
lowerneck -9.51656 -1.5998 2.77376
upperneck -2.75122 -2.40673 0.917997
head 0.702193 -1.20643 -0.258058
lclavicle -3.88766e-14 -1.59028e-15 0
lhumerus -41.4825 -12.9254 96.908
lradius 39.4151 0 0
lwrist 6.09696 0 0
lhand -11.5618 5.05216 0
lfingers 7.12502 0 0
lthumb 14.4792 34.5269 0
rclavicle -3.88766e-14 -1.59028e-15 0
rhumerus -40.4601 -5.04862 -89.0404
rradius 39.0253 0 0
rwrist 11.1378 0 0
rhand -26.7794 -19.9811 0
rfingers 7.12502 0 0
rthumb -0.207054 -49.9608 0
38
root 5.95513 16.9007 -28.0798 10.0773 -1.77732 -2.11711
lfemur -20.1974 1.57764 -19.8168
ltibia 33.7582 0 0
lfoot -35.6729 4.24732 0
ltoes 35.6839 0 0
rfemur -16.8403 7.0418 19.4996
rtibia 30.4628 0 0
rfoot -27.2656 -19.0534 0
rtoes 13.2967 0 0
lowerback -5.63028 2.45147 -0.632275
upperback -1.82537 3.29264 0.504182
thorax 1.20704 1.64768 1.08517
lowerneck -9.51493 -1.58575 2.80744
upperneck -2.79373 -2.39095 0.976636
head 0.688819 -1.19852 -0.244629
lclavicle -3.28278e-14 -2.9818e-16 0
lhumerus -41.4698 -12.9619 96.8158
lradius 39.5867 0 0
lwrist 6.20039 0 0
lhand -11.6136 4.76982 0
lfingers 7.12502 0 0
lthumb 14.4293 34.2481 0
rclavicle -3.28278e-14 -2.9818e-16 0
rhumerus -40.414 -5.04218 -89.1813
rradius 39.0122 0 0
rwrist 11.0871 0 0
rhand -26.7644 -20.0521 0
rfingers 7.12502 0 0
rthumb -0.192552 -50.0318 0
39
root 5.94813 16.9003 -28.0808 10.1032 -1.72751 -2.0888
lfemur -20.2455 1.52991 -19.8147
ltibia 33.7866 0 0
lfoot -35.5806 4.23887 0
ltoes 35.5889 0 0
rfemur -16.8573 6.86657 19.4928
rtibia 30.4458 0 0
rfoot -27.2408 -18.9762 0
rtoes 12.7437 0 0
lowerback -5.6614 2.41609 -0.52663
upperback -1.8066 3.24104 0.418645
thorax 1.25533 1.62133 0.937435
lowerneck -9.51331 -1.57171 2.84112
upperneck -2.83624 -2.37516 1.03527
head 0.675444 -1.19062 -0.2312
lclavicle -2.67791e-14 9.9392e-16 0
lhumerus -41.4571 -12.9984 96.7236
lradius 39.7583 0 0
lwrist 6.30382 0 0
lhand -11.6654 4.48747 0
lfingers 7.12502 0 0
lthumb 14.3794 33.9693 0
rclavicle -2.67791e-14 9.9392e-16 0
rhumerus -40.3679 -5.03574 -89.3221
rradius 38.9991 0 0
rwrist 11.0364 0 0
rhand -26.7494 -20.1232 0
rfingers 7.12502 0 0
rthumb -0.17805 -50.1029 0
40
root 5.94112 16.8999 -28.0818 10.129 -1.6777 -2.06049
lfemur -20.2937 1.48218 -19.8127
ltibia 33.8149 0 0
lfoot -35.4884 4.23043 0
ltoes 35.4939 0 0
rfemur -16.8743 6.69135 19.486
rtibia 30.4288 0 0
rfoot -27.2161 -18.8991 0
rtoes 12.1908 0 0
lowerback -5.69251 2.38072 -0.420986
upperback -1.78783 3.18945 0.333108
thorax 1.30362 1.59498 0.7897
lowerneck -9.51169 -1.55767 2.8748
upperneck -2.87876 -2.35938 1.09391
head 0.66207 -1.18271 -0.21777
lclavicle -2.07304e-14 2.28602e-15 0
lhumerus -41.4444 -13.0349 96.6314
lradius 39.93 0 0
lwrist 6.40726 0 0
lhand -11.7171 4.20512 0
lfingers 7.12502 0 0
lthumb 14.3296 33.6905 0
rclavicle -2.07304e-14 2.28602e-15 0
rhumerus -40.3218 -5.02929 -89.463
rradius 38.986 0 0
rwrist 10.9858 0 0
rhand -26.7343 -20.1942 0
rfingers 7.12502 0 0
rthumb -0.163549 -50.1739 0
41
root 5.93412 16.8995 -28.0828 10.1549 -1.62789 -2.03218
lfemur -20.3418 1.43445 -19.8106
ltibia 33.8433 0 0
lfoot -35.3961 4.22198 0
ltoes 35.3989 0 0
rfemur -16.8913 6.51612 19.4792
rtibia 30.4118 0 0
rfoot -27.1913 -18.8219 0
rtoes 11.6378 0 0
lowerback -5.72363 2.34534 -0.315341
upperback -1.76906 3.13785 0.24757
thorax 1.35191 1.56863 0.641965
lowerneck -9.51007 -1.54363 2.90848
upperneck -2.92127 -2.34359 1.15255
head 0.648695 -1.17481 -0.204341
lclavicle -1.46817e-14 3.57812e-15 0
lhumerus -41.4317 -13.0714 96.5392
lradius 40.1016 0 0
lwrist 6.51069 0 0
lhand -11.7689 3.92277 0
lfingers 7.12502 0 0
lthumb 14.2797 33.4117 0
rclavicle -1.46817e-14 3.57812e-15 0
rhumerus -40.2757 -5.02285 -89.6038
rradius 38.9729 0 0
rwrist 10.9351 0 0
rhand -26.7193 -20.2653 0
rfingers 7.12502 0 0
rthumb -0.149047 -50.245 0
42
root 5.92712 16.8991 -28.0838 10.1807 -1.57807 -2.00386
lfemur -20.3899 1.38673 -19.8086
ltibia 33.8716 0 0
lfoot -35.3039 4.21354 0
ltoes 35.3038 0 0
rfemur -16.9083 6.34089 19.4724
rtibia 30.3948 0 0
rfoot -27.1665 -18.7447 0
rtoes 11.0848 0 0
lowerback -5.75475 2.30997 -0.209697
upperback -1.75028 3.08625 0.162033
thorax 1.4002 1.54229 0.49423
lowerneck -9.50844 -1.52958 2.94216
upperneck -2.96378 -2.32781 1.21119
head 0.635321 -1.1669 -0.190912
lclavicle -8.63293e-15 4.87022e-15 0
lhumerus -41.419 -13.1079 96.447
lradius 40.2732 0 0
lwrist 6.61412 0 0
lhand -11.8207 3.64043 0
lfingers 7.12502 0 0
lthumb 14.2298 33.1329 0
rclavicle -8.63293e-15 4.87022e-15 0
rhumerus -40.2296 -5.01641 -89.7447
rradius 38.9598 0 0
rwrist 10.8844 0 0
rhand -26.7043 -20.3363 0
rfingers 7.12502 0 0
rthumb -0.134545 -50.316 0
43
root 5.92012 16.8987 -28.0848 10.2066 -1.52826 -1.97555
lfemur -20.438 1.339 -19.8065
ltibia 33.9 0 0
lfoot -35.2116 4.20509 0
ltoes 35.2088 0 0
rfemur -16.9253 6.16566 19.4656
rtibia 30.3778 0 0
rfoot -27.1417 -18.6675 0
rtoes 10.5318 0 0
lowerback -5.78587 2.27459 -0.104052
upperback -1.73151 3.03465 0.0764956
thorax 1.44849 1.51594 0.346495
lowerneck -9.50682 -1.51554 2.97584
upperneck -3.00629 -2.31202 1.26983
head 0.621946 -1.159 -0.177483
lclavicle -2.5842e-15 6.16232e-15 0
lhumerus -41.4063 -13.1444 96.3548
lradius 40.4448 0 0
lwrist 6.71755 0 0
lhand -11.8725 3.35808 0
lfingers 7.12502 0 0
lthumb 14.1799 32.8541 0
rclavicle -2.5842e-15 6.16232e-15 0
rhumerus -40.1835 -5.00997 -89.8855
rradius 38.9467 0 0
rwrist 10.8337 0 0
rhand -26.6893 -20.4074 0
rfingers 7.12502 0 0
rthumb -0.120043 -50.3871 0
44
root 5.91467 16.8949 -28.0888 10.2832 -1.34086 -1.92467
lfemur -20.7201 1.66866 -19.8578
ltibia 34.1862 0 0
lfoot -34.9999 3.62352 0
ltoes 35.3421 0 0
rfemur -16.9965 5.70105 19.4353
rtibia 30.3933 0 0
rfoot -27.2336 -18.4675 0
rtoes 9.60577 0 0
lowerback -5.79076 2.22389 0.00311371
upperback -1.72407 2.96268 -0.0153658
thorax 1.46804 1.48009 0.187867
lowerneck -9.52556 -1.52972 2.9671
upperneck -3.0927 -2.32867 1.34475
head 0.59855 -1.16743 -0.153002
lclavicle -1.98075e-15 4.45845e-15 0
lhumerus -41.393 -13.2577 96.2573
lradius 40.6437 0 0
lwrist 6.8016 0 0
lhand -11.792 3.31941 0
lfingers 7.12502 0 0
lthumb 14.2575 32.8099 0
rclavicle -1.98075e-15 4.45845e-15 0
rhumerus -40.1763 -4.85125 -90.0769
rradius 39.0762 0 0
rwrist 10.6152 0 0
rhand -26.605 -20.5105 0
rfingers 7.12502 0 0
rthumb -0.0386243 -50.4901 0
45
root 5.90923 16.8911 -28.0928 10.3598 -1.15346 -1.87378
lfemur -21.0022 1.99832 -19.9091
ltibia 34.4723 0 0
lfoot -34.7883 3.04196 0
ltoes 35.4755 0 0
rfemur -17.0678 5.23645 19.4051
rtibia 30.4088 0 0
rfoot -27.3256 -18.2675 0
rtoes 8.67974 0 0
lowerback -5.79566 2.17318 0.110279
upperback -1.71663 2.89072 -0.107227
thorax 1.4876 1.44423 0.0292381
lowerneck -9.5443 -1.5439 2.95836
upperneck -3.1791 -2.34531 1.41967
head 0.575155 -1.17586 -0.128521
lclavicle -1.37729e-15 2.75458e-15 0
lhumerus -41.3798 -13.371 96.1598
lradius 40.8427 0 0
lwrist 6.88566 0 0
lhand -11.7115 3.28074 0
lfingers 7.12502 0 0
lthumb 14.335 32.7657 0
rclavicle -1.37729e-15 2.75458e-15 0
rhumerus -40.169 -4.69252 -90.2684
rradius 39.2058 0 0
rwrist 10.3967 0 0
rhand -26.5207 -20.6135 0
rfingers 7.12502 0 0
rthumb 0.0427944 -50.5931 0
46
root 5.90378 16.8873 -28.0968 10.4364 -0.966065 -1.8229
lfemur -21.2843 2.32798 -19.9604
ltibia 34.7585 0 0
lfoot -34.5766 2.46039 0
ltoes 35.6088 0 0
rfemur -17.139 4.77184 19.3748
rtibia 30.4243 0 0
rfoot -27.4175 -18.0675 0
rtoes 7.75371 0 0
lowerback -5.80055 2.12248 0.217445
upperback -1.70919 2.81875 -0.199089
thorax 1.50715 1.40838 -0.12939
lowerneck -9.56304 -1.55808 2.94962
upperneck -3.26551 -2.36196 1.49459
head 0.551759 -1.18429 -0.10404
lclavicle -7.73841e-16 1.05071e-15 0
lhumerus -41.3665 -13.4843 96.0623
lradius 41.0416 0 0
lwrist 6.96971 0 0
lhand -11.631 3.24207 0
lfingers 7.12502 0 0
lthumb 14.4126 32.7215 0
rclavicle -7.73841e-16 1.05071e-15 0
rhumerus -40.1618 -4.5338 -90.4598
rradius 39.3353 0 0
rwrist 10.1781 0 0
rhand -26.4364 -20.7166 0
rfingers 7.12502 0 0
rthumb 0.124213 -50.6961 0
